<?xml version="1.0" encoding="UTF-8"?>
<svg version="1.1" viewBox="0 0 1600 1600" width="1280" height="1280" xmlns="http://www.w3.org/2000/svg">
<path transform="translate(56 96.7)" d="m0 0c1.15-0 2.31-0.01 3.5-0.01 3.84-0.01 7.68 0 11.5 0.01 2.77-0.01 5.53-0.01 8.3-0.02h20.2c5.46 0.01 10.9 0.01 16.4 0.01h2.36c1.59-0.01 3.17-0.01 4.76-0.01 14.8 0 29.7 0 44.5 0.02 12.7 0 25.4 0 38.1-0.01 14.8-0.01 29.6-0.01 44.3-0.01 1.58 0.01 3.16 0.01 4.74 0.01h2.36c5.45 0 10.9 0 16.3-0.01 6.66 0 13.3 0 20 0.01h10.2c42.8-0.07 42.8-0.07 58.4 14.9 11.2 12.3 14.1 29.4 17.4 45.1 0.85 4.12 1.73 8.23 2.61 12.3 0.44 2.08 0.89 4.16 1.33 6.25 1.78 8.38 3.67 16.7 5.61 25.1 3.89 16.8 7.58 33.6 11.3 50.5 0.48 2.22 0.97 4.44 1.46 6.66 0.77 3.52 1.54 7.04 2.31 10.6 0.43 1.96 0.86 3.91 1.28 5.86 0.26 1.17 0.51 2.34 0.78 3.55 0.22 1.02 0.45 2.05 0.68 3.11 0.47 2.43 0.47 2.43 0.47 4.43h3.03c34.2-0.02 68.5-0.04 103-0.06h2.09c73.9-0.04 148-0.08 222-0.11h4.92c34.5-0.01 68.9-0.02 103-0.03 17.3 0 34.6-0.01 51.9-0.01 2.61-0.01 5.22-0.01 7.83-0.01 40.2-0.01 80.4-0.03 121-0.05h2.62c13.9-0.01 27.9-0.02 41.8-0.03 40.1-0.03 80.3-0.05 120-0.06h2.5c18.1-0.01 36.2-0.01 54.4-0.01 7.29 0 14.6 0 21.9-0.01h2.42c25.7 0 51.4-0.02 77.1-0.04 25.9-0.03 51.8-0.04 77.7-0.03h10.7 2.12c11.1 0 22.2-0.01 33.3-0.03 10.9-0.01 21.8-0.02 32.8 0 5.85 0 11.7 0 17.5-0.02 5.31-0.01 10.6-0.01 16 0.01 1.91 0 3.82 0 5.73-0.01 17.1-0.1 29.4 2.33 42.6 14.1 7.64 7.95 13.3 20.9 13.8 31.8-0.16 6.58-1.77 12.3-3.69 18.6-0.65 2.15-1.29 4.31-1.93 6.46-0.33 1.09-0.66 2.18-0.99 3.3-1.43 4.8-2.8 9.61-4.17 14.4-0.26 0.93-0.53 1.87-0.8 2.83-0.55 1.93-1.1 3.86-1.65 5.8-0.89 3.16-1.79 6.31-2.68 9.47-1.3 4.56-2.59 9.12-3.89 13.7-10.9 38.3-21.8 76.5-32.8 115-8.4 29.2-16.8 58.4-25.1 87.7-0.24 0.84-0.47 1.68-0.72 2.54-1.17 4.15-2.35 8.3-3.53 12.4-0.23 0.8-0.45 1.61-0.69 2.44-0.46 1.61-0.91 3.22-1.37 4.83-4.69 16.5-9.4 33.1-14.1 49.6-0.27 0.97-0.27 0.97-0.56 1.96-5.39 18.9-10.8 37.7-16.3 56.6-5.42 18.8-10.8 37.6-16.1 56.4-0.41 1.44-0.82 2.87-1.22 4.31-0.2 0.71-0.4 1.42-0.61 2.15-1.01 3.56-2.02 7.13-3.03 10.7-0.2 0.7-0.4 1.4-0.6 2.13-4.1 14.5-8.22 28.9-12.4 43.4-0.48 1.71-0.48 1.71-0.98 3.45-5.1 17.8-10.2 35.6-15.4 53.5-3.36 11.6-6.71 23.3-9.99 35-0.3 1.04-0.59 2.08-0.89 3.15-1.37 4.89-2.75 9.78-4.11 14.7-2.41 8.6-4.88 17.2-7.54 25.7-0.24 0.76-0.47 1.52-0.71 2.31-4.67 14.8-11.2 26.3-25 33.9-12.5 5.93-26.2 5.62-39.8 5.6-1.46 0.01-2.93 0.01-4.39 0.01-4.01 0.01-8.03 0-12 0-4.37 0-8.74 0.01-13.1 0.01-7.65 0.01-15.3 0.01-23 0.01-11.4 0-22.8 0.01-34.2 0.01-18 0.02-36 0.03-53.9 0.03-28.5 0.01-57.1 0.03-85.6 0.05l-32.9 0.03h-3.7c-29 0.02-58.1 0.04-87.1 0.06h-3.85c-29.6 0.02-59.3 0.04-88.9 0.05h-3.87c-10.3 0.01-20.6 0.01-30.8 0.02-42.4 0.01-84.8 0.04-127 0.08-5.98 0.01-12 0.01-17.9 0.02h-3.57c-19 0.02-37.9 0.02-56.9 0.02-19 0-38.1 0.02-57.1 0.04-11.3 0.01-22.6 0.02-34 0.01-7.56 0-15.1 0-22.7 0.02-4.31 0.01-8.61 0.01-12.9 0-3.92-0.01-7.85 0-11.8 0.02-1.41 0-2.81 0-4.22-0.01-10.8-0.05-21.6 0.54-30.7 6.96-4.91 3.39-4.91 3.39-7.18 4.4-2.34 1.33-2.75 2.6-3.82 5.03-0.94 1.35-1.9 2.68-2.87 4-7.34 11-9.51 24-7.05 36.8 4.15 14.3 12.2 24.3 25.2 31.5 16.7 7.66 38 5.01 56 4.97 4.29-0.01 8.58 0 12.9 0 7.5 0 15 0 22.5-0.01 11.2-0.02 22.3-0.02 33.5-0.02 18.8 0 37.6-0.01 56.4-0.03l55.8-0.03h3.51 17.6c41.6-0.01 83.3-0.03 125-0.05h7.55c1.87-0.01 1.87-0.01 3.78-0.01 6.31 0 12.6 0 18.9-0.01h3.79c29.1-0.02 58.1-0.03 87.2-0.04h3.78c28.4-0.02 56.9-0.03 85.3-0.04h3.62c10.8 0 21.5 0 32.3-0.01 26.8 0 53.6-0.02 80.4-0.03 18.7-0.02 37.4-0.02 56-0.03 11.1 0 22.2-0.01 33.3-0.02 7.42-0.01 14.8-0.01 22.2-0.01 4.22 0 8.44 0 12.7-0.01 52.7-0.08 52.7-0.08 67.8 12.1v2c0.99 0.33 1.98 0.66 3 1 9.7 11.1 12.9 23.5 12 38-1.2 6.82-3.48 13-7 19-0.33 0.59-0.67 1.17-1.01 1.77-6.12 9.57-16.2 15.6-27 18.3-4.83 1.05-9.47 1.32-14.4 1.38-0.9 0.02-1.8 0.04-2.73 0.06-2.93 0.07-5.87 0.12-8.81 0.17l-6.15 0.12c-5.37 0.11-10.7 0.21-16.1 0.31-5.49 0.1-11 0.21-16.5 0.32-10.8 0.22-21.5 0.42-32.3 0.61 0.61 0.06 1.21 0.11 1.84 0.17 2.76 0.24 5.53 0.5 8.29 0.75 1.43 0.13 1.43 0.13 2.88 0.26 6.43 0.59 12.4 1.54 18.6 3.64 0.82 0.26 1.65 0.53 2.5 0.8 2.32 0.77 4.63 1.57 6.93 2.38 1.11 0.4 2.22 0.79 3.36 1.19 12.7 4.93 24.4 12 34.6 20.8 1.02 0.81 2.03 1.62 3.08 2.46 12.8 10.3 22.6 22.4 30.9 36.5 0.35 0.57 0.69 1.14 1.05 1.72 17.2 28.5 22.2 66 14.9 98.3-1.16 4.7-2.51 9.34-3.93 14-0.34 1.19-0.69 2.38-1.05 3.6-5.41 16.8-14.9 31.6-26.5 44.8-1.25 1.43-2.47 2.89-3.69 4.35-4.68 5.55-9.92 9.98-15.8 14.3-0.96 0.72-1.93 1.45-2.93 2.19-19.3 13.9-40.5 22.4-64.1 25.8-0.83 0.13-1.67 0.26-2.53 0.4-30.2 3.88-60.1-2.55-86.5-17.4-0.9-0.47-1.8-0.95-2.73-1.45-6.99-3.88-12.8-9.04-18.8-14.3-1.19-1.04-2.41-2.04-3.63-3.03-11-9.04-19.8-20.9-26.8-33.2-0.34-0.6-0.69-1.2-1.04-1.81-17.3-30.8-22-68.9-13.2-103 8.2-29.3 24.7-54.7 48.2-74.1 0.8-0.68 1.6-1.36 2.42-2.06 20.5-16.6 46-26.1 72.2-27.7 0.81-0.05 1.62-0.1 2.46-0.15 0.62-0.04 1.24-0.08 1.87-0.12-30.5-0.98-61-1.14-91.5-1.13-6.08 0.01-12.2 0-18.2 0-13.2-0.01-26.3 0-39.5 0h-34.6-2.34-9.38-87.7c-25.9 0.01-51.7 0.01-77.6 0h-87.5-9.37-2.33-34.5c-13.1-0.01-26.2 0-39.3 0h-20c-30.4-0.01-60.7 0.24-91.1 1.13 0.6 0.05 1.19 0.1 1.8 0.15 2.72 0.23 5.44 0.47 8.17 0.71 1.39 0.11 1.39 0.11 2.81 0.22 8.59 0.78 16.2 2.98 24.2 5.92 0.92 0.29 1.83 0.57 2.77 0.87 34.6 11.2 61.7 39.3 78.1 70.8 16.4 33.2 17.3 72.8 5.87 108-2.56 7.27-6.01 14-9.74 20.7-0.57 1.08-1.15 2.16-1.75 3.27-4.02 7.25-8.81 13.5-14.2 19.7-0.73 0.86-1.46 1.72-2.22 2.6-16.2 18.5-36.3 32.1-59.8 39.4-0.69 0.22-1.37 0.44-2.09 0.66-17.6 5.48-34.6 7.04-52.9 6.34-0.73-0.02-1.46-0.05-2.22-0.07-25.9-1.16-51.8-11.7-71.8-27.9-1.3-0.99-1.3-0.99-2.64-2.01-28.2-21.8-47.3-54.3-52-89.8-4.37-36.8 3.52-74.4 26.8-104 2.13-2.59 4.3-5.13 6.52-7.63 1.24-1.4 2.43-2.83 3.63-4.27 4.97-5.9 10.7-10.6 16.8-15.3 0.74-0.57 1.47-1.14 2.23-1.73 12.2-9.06 25.8-16 40.2-20.8 1.41-0.48 1.41-0.48 2.84-0.97 6.84-2.13 13.6-2.95 20.6-3.56 1.46-0.14 1.46-0.14 2.94-0.27 2.38-0.22 4.76-0.43 7.13-0.64-1.09-0.01-2.19-0.03-3.33-0.05-10.5-0.18-20.9-0.37-31.4-0.57-5.38-0.11-10.8-0.21-16.1-0.3-59.2-0.98-59.2-0.98-77.3-7.58-0.98-0.34-1.95-0.68-2.95-1.03-14.4-5.25-28.4-12.2-39.9-22.5-1.93-1.56-3.87-3.13-5.81-4.68-3.61-2.92-7.03-5.9-10.2-9.32v-2h-2c-6.78-7.06-11.9-15.7-17-24-0.68-1.09-1.36-2.18-2.06-3.31-17.6-30.2-20.8-67.8-12.6-101 9.86-37.2 33.9-67.6 66.6-87.4 10.6-6 10.6-6 14-6-0.23-0.96-0.45-1.93-0.69-2.93-6.05-25.5-11.8-51.1-17.4-76.8-0.89-4.12-1.79-8.24-2.69-12.4-0.14-0.66-0.29-1.32-0.44-2-2.58-11.9-5.26-23.7-8-35.6-2.07-8.96-4.04-17.9-5.97-26.9-3.09-14.4-6.27-28.9-9.52-43.3-0.2-0.88-0.4-1.76-0.6-2.67-1.03-4.56-2.06-9.12-3.09-13.7-6.86-30.4-13.6-60.8-20.3-91.2-3.44-15.8-6.92-31.6-10.6-47.3-2.06-8.93-4.03-17.9-5.95-26.8-4.32-20.2-8.84-40.3-13.4-60.5-2.21-9.79-4.41-19.6-6.62-29.4-0.21-0.96-0.43-1.92-0.65-2.9-3.9-17.3-7.73-34.7-11.5-52-3.48-15.9-7.03-31.8-10.6-47.6-2.49-11-4.9-22-7.27-33-4.56-21.2-9.31-42.4-14.1-63.5-3.58-15.9-7.16-31.7-10.7-47.6-0.21-0.96-0.43-1.93-0.65-2.92-1.3-5.79-2.59-11.6-3.87-17.4-0.4-1.81-0.8-3.62-1.21-5.42-0.55-2.5-1.1-4.99-1.65-7.48-0.17-0.73-0.33-1.47-0.5-2.22-0.72-3.31-1.12-6.16-1.12-9.57-1.91 0.01-1.91 0.01-3.87 0.01-30.4 0.07-60.7 0.12-91.1 0.15-3.74 0-7.48 0-11.2 0.01h-2.25c-12 0.01-24.1 0.04-36.1 0.07-12.4 0.02-24.7 0.04-37.1 0.05-7.62 0-15.2 0.01-22.9 0.04-5.86 0.02-11.7 0.02-17.6 0.01-2.39 0-4.79 0.01-7.18 0.02-18.9 0.09-34.2-0.58-48.6-14.1-9.59-10.3-14-22.6-13.6-36.6 1.44-12.1 7.89-24.2 17.2-32.1 12.1-8.9 24.5-10.9 39.2-10.9zm372 281c0.32 2.08 0.64 4.16 0.95 6.24 0.18 1.16 0.35 2.32 0.54 3.51 0.59 3.75 1.33 7.41 2.17 11.1 0.15 0.69 0.31 1.38 0.46 2.09 0.51 2.26 1.02 4.51 1.53 6.76l1.11 4.92c0.79 3.51 1.58 7.03 2.37 10.5l3.81 16.9c0.43 1.95 0.87 3.9 1.31 5.85 0.22 0.97 0.44 1.95 0.66 2.95 0.68 3 1.35 6 2.03 9.01 4.55 20.2 9.06 40.5 13.6 60.8l1.89 8.52c4.33 19.5 8.66 39 13 58.5 0.17 0.79 0.35 1.58 0.53 2.39 0.86 3.94 1.73 7.88 2.6 11.8 0.17 0.78 0.34 1.55 0.52 2.35 0.34 1.56 0.69 3.13 1.03 4.7 6.06 27.5 12.2 55 18.4 82.5 6.79 30.2 13.5 60.3 20.1 90.5 0.21 0.97 0.42 1.93 0.64 2.93 2.59 11.8 5.18 23.6 7.76 35.4 2.43 11.1 4.85 22.2 7.28 33.2 0.22 0.98 0.43 1.96 0.66 2.97 3.48 15.8 7.06 31.6 10.7 47.4 1.15 5.02 2.28 10 3.41 15 0.16 0.73 0.32 1.46 0.49 2.21 1.27 5.66 1.27 5.66 1.89 8.44 0.41 1.89 0.84 3.77 1.26 5.65 0.23 1.06 0.47 2.13 0.72 3.23 0.52 2.49 0.52 2.49 1.62 4.51h777c1.86-4.34 3.42-8.03 4.67-12.5 0.29-1.04 0.58-2.07 0.88-3.14 0.31-1.11 0.62-2.22 0.94-3.37 0.33-1.17 0.66-2.35 1-3.57 0.72-2.54 1.43-5.08 2.14-7.63 1.73-6.17 3.47-12.3 5.21-18.5 0.59-2.1 1.19-4.21 1.78-6.31 3.39-12 6.84-24 10.3-36.1 4.86-16.8 9.67-33.5 14.5-50.3 0.42-1.49 0.42-1.49 0.86-3.01 2.88-10.1 5.76-20.2 8.63-30.3 1.36-4.74 2.71-9.49 4.07-14.2 0.26-0.92 0.52-1.84 0.79-2.79 3.34-11.7 6.7-23.4 10.1-35 2.92-10 5.79-20.1 8.6-30.2 3.23-11.6 6.55-23.2 9.86-34.7l2.07-7.26c1.27-4.45 2.55-8.89 3.82-13.3 2.43-8.49 4.85-17 7.27-25.5 0.19-0.65 0.38-1.3 0.57-1.97 0.94-3.29 1.88-6.58 2.82-9.88 1.71-5.97 3.42-12 5.12-17.9 0.94-3.29 1.88-6.57 2.82-9.86 0.37-1.29 0.74-2.58 1.11-3.88 0.36-1.25 0.71-2.51 1.08-3.81 0.7-2.44 1.4-4.88 2.1-7.33 0.51-1.77 0.51-1.77 1.02-3.58 0.68-2.36 1.35-4.72 2.02-7.08 1.66-5.78 3.31-11.6 4.96-17.3 2.99-10.5 5.98-20.9 8.97-31.4 6.74-23.5 13.5-47.1 20.1-70.6 0.4-1.39 0.4-1.39 0.8-2.82 1.22-4.3 2.43-8.61 3.64-12.9 0.94-3.36 1.9-6.71 2.88-10.1 0.24-0.83 0.48-1.66 0.72-2.51 0.46-1.57 0.91-3.14 1.38-4.7 1.26-4.29 1.26-4.29 0.39-8.62-87.1-0.01-174-0.03-294-0.04h-4.39c-30.8 0-61.5 0-92.3-0.01h-46.4-6.99c-35.9 0-71.7-0.01-108-0.01-0.77 0-1.54 0-2.33-0.01h-37.3c-35.8-0.01-71.6-0.01-107-0.02h-2.23-48.6-19.6-2.16c-22.9 0-45.8-0.01-68.8-0.01-23.8-0.01-47.5-0.01-71.3-0.01-13.7 0-27.4 0-41-0.01h-27.5-15.6c-22.3-0.02-44.5 0.16-66.7 1.12zm145 953c-8.38 10.6-12.6 23.4-11.3 36.9 2.3 13.7 8.61 24.6 19.7 33.1 10.8 7.15 22 10.3 34.9 8.23 14-3.07 25.5-10.1 33.4-22.3 6.81-11.3 7.75-24.7 5.35-37.5-3.69-12.2-12.1-22.7-23.1-29.1-20.6-9.93-43.2-5.98-59 10.7zm662 0.9c-8.89 11.6-11.2 24.8-10 39 1.93 11.7 9.22 22.6 18.7 29.6 11.6 7.78 24.5 10.8 38.3 8.37 8.1-2.04 14.5-5.8 21-11 0.64-0.5 1.28-1 1.94-1.51 8.97-7.91 13.3-20.3 14.3-31.9 0.55-13.5-4.55-25-13-35.3-8.89-9.39-21.8-14.1-34.5-14.6-14.7 0.44-26.8 6.66-36.7 17.3z"/>
</svg>
