<?xml version="1.0" encoding="UTF-8"?>
<svg version="1.1" viewBox="0 0 1600 1600" width="1280" height="1280" xmlns="http://www.w3.org/2000/svg">
<path transform="translate(71.9 732)" d="m0 0c1.56-0 1.56-0 3.15-0.01 3.47-0.01 6.94 0 10.4 0.01 2.52-0.01 5.05-0.01 7.58-0.01 5.51-0.01 11-0.01 16.5 0 8.25 0 16.5 0 24.7-0.01 14-0.01 28.1-0.01 42.2-0.01 14.2 0.01 28.5 0.01 42.7 0h2.72 11c37.2-0.02 74.4-0.02 112-0.02h15.4 3.09 67.9c5.17-0.01 10.3-0.01 15.5-0.01h6.22 3.11 6.24c59-0.01 118-0.01 177-0.01h3.31c12.2 0 24.4 0 36.5 0.01h3.33 13.3c70.3 0 141-0.01 211-0.02 17.7-0.01 35.4-0.01 53.2-0.02h3.31c33.6-0.01 67.3-0.01 101-0.01h3.2 69.5 24.9 6.19c32.9 0 65.8-0.01 98.6-0.02 34-0.01 68.1-0.01 102 0 3.65 0 7.31 0 11 0.01h2.72c14.2 0 28.4 0 42.6-0.01 14-0.01 27.9-0.01 41.9 0 8.19 0.01 16.4 0.01 24.6-0.01 6.08-0.01 12.2 0 18.2 0.01 2.44 0.01 4.88 0 7.32 0 23.7-0.08 45.3 2.02 63.5 18.9 13.2 14.1 20.7 32.6 20.3 51.9-1.05 17.4-10.6 34.1-22.8 46.1-15.5 13.5-34.5 16.6-54.3 16.6h-3.13c-3.45 0.01-6.9 0-10.4 0-2.51 0-5.02 0-7.54 0.01h-16.4c-8.2-0.01-16.4 0-24.6 0-14 0.01-28 0.01-41.9 0.01h-42.5-2.71c-3.64 0-7.29 0-10.9 0.01-38 0.01-76 0.01-114 0.01h-12.3-3.08-67.5c-9.27 0.01-18.5 0.01-27.8 0.01h-3.1c-58.7 0-117 0.01-176 0.01h-6.59-29.7-13.3-6.64c-70 0-140 0-210 0.02-17.6 0-35.3 0-52.9 0.01h-3.29c-33.4 0-66.9 0.01-100 0.01h-3.18-69.2-24.7-6.16c-32.7 0-65.4 0.01-98.1 0.01-32.9 0.01-65.9 0.02-98.8 0.01h-13.6-2.71c-14.1-0.01-28.2 0-42.4 0.01-13.9 0-27.8 0-41.7-0.01-8.14 0-16.3 0-24.4 0.01-6.05 0.01-12.1 0-18.1-0.01-2.43 0-4.86 0-7.29 0.01-25.7 0.05-47.9-1.74-67.5-20.1-8.3-8.89-13.2-18.6-16.7-30.2-0.37-1.1-0.73-2.19-1.11-3.32-3.21-13.2-1.22-26.4 4.11-38.7 0.39-0.93 0.79-1.86 1.2-2.83 2.79-6.04 6.45-11.2 10.8-16.2 0.58-0.68 1.17-1.36 1.77-2.06 14-15.1 33.2-20.3 53.2-20.2z" fill="#000100"/>
<path transform="translate(88.7 1243)" d="m0 0c2.52-0 5.05-0.01 7.57-0.01 5.49-0.01 11-0.01 16.5 0 8.22 0 16.4 0 24.7-0.01 14-0.01 28-0.01 42 0 14.2 0 28.4 0 42.6-0.01h2.72 11c37.1-0.02 74.2-0.02 111-0.02h15.4 3.09 67.7 15.4 6.2c1.02 0 2.05-0.01 3.1-0.01h6.22c58.8 0 118-0.01 176-0.01 1.08 0 2.17 0 3.3 0.01h36.4 3.32 13.3c70.1 0 140 0 210-0.02 17.7-0.01 35.3-0.01 53-0.02h3.3c33.5 0 67.1-0.01 101-0.01h3.19 69.3 24.8 6.17c32.8 0 65.6 0 98.3-0.01 33.9-0.02 67.8-0.02 102-0.01 3.65 0.01 7.29 0.01 10.9 0.01h2.71c14.2 0 28.3 0 42.5-0.01 13.9-0.01 27.8-0.01 41.8 0 8.16 0.01 16.3 0.01 24.5-0.01 6.06 0 12.1 0 18.2 0.02 2.43 0 4.86 0 7.3-0.01 25.6-0.08 46.5 2.68 66 20.7 12.8 13.8 19.4 32.1 18.9 50.8-1.12 17.7-11 33.9-23.4 46-14.2 12.1-32.2 16-50.4 16-1.55 0-1.55 0-3.14 0.01-3.47 0-6.95 0-10.4-0.01-2.52 0-5.05 0.01-7.57 0.01h-16.5-24.7c-14 0.01-28.1 0.01-42.2 0.01h-42.7-2.73c-3.66 0.01-7.32 0.01-11 0.01-38.2 0.01-76.4 0.01-115 0.01h-12.3-3.1c-22.6 0-45.2 0-67.9 0.01h-27.9-3.11c-59 0.01-118 0.01-177 0.01h-6.63-29.9-13.3-6.68c-70.3 0-141 0.01-211 0.02-17.7 0-35.4 0.01-53.2 0.01h-3.31c-33.6 0.01-67.2 0.01-101 0.01h-3.19-69.5-24.9-6.18c-32.9 0-65.8 0.01-98.6 0.02-33.1 0.01-66.2 0.01-99.3 0h-13.7-2.72c-14.2 0-28.4 0-42.6 0.01h-41.9c-8.19-0.01-16.4-0.01-24.6 0-6.08 0.01-12.2 0-18.2 0-2.45-0.01-4.89 0-7.34 0-3.32 0.01-6.64 0-9.95-0.01-1.42 0.01-1.42 0.01-2.86 0.02-18.7-0.1-35.6-5.96-49.3-19-14.3-15-20.6-32.7-20.2-53.2 0.37-7.29 2.49-13.4 5.38-20.1 0.37-0.91 0.75-1.82 1.13-2.75 6.63-14.8 19.8-27.2 34.7-33.4 15.6-5.62 31.6-5.1 47.9-5.07z" fill="#000100"/>
<path transform="translate(83.8 221)" d="m0 0c2.54-0 5.08-0.01 7.62-0.01 5.52-0.01 11-0.01 16.6-0.01 8.27 0.01 16.5 0.01 24.8 0 14.1-0.02 28.2-0.02 42.3-0.01 14.3 0.01 28.6 0.01 42.8 0h2.74c3.68-0.01 7.35-0.01 11-0.01 37.3-0.02 74.6-0.02 112-0.02h15.5 3.1c22.7 0.01 45.4 0 68.1 0h9.32c8.33 0 16.7 0 25-0.01 58.1-0.01 116-0.01 174 0h3.32 36.7 3.34 13.4c70.6 0.02 141 0.01 212-0.02 17.8 0 35.6-0.01 53.3-0.01h3.32c33.7-0.02 67.5-0.02 101-0.02h3.21 69.8 25 6.21c33 0.01 66 0 99-0.02 34.1-0.01 68.3-0.01 102 0.01h11 2.72c14.2 0.01 28.5 0 42.7-0.01 14-0.01 28-0.01 42 0.01 8.21 0.01 16.4 0.01 24.6-0.01 6.1-0.01 12.2 0 18.3 0.01 2.45 0.01 4.9 0 7.35-0.01 22.1-0.08 42.6 2.23 59.4 18.2 13.2 13.2 21.4 30.5 21.7 49.3-0.08 8.77-2.13 16-5.56 24.1-0.67 1.59-0.67 1.59-1.35 3.21-7.72 16.8-20.8 27.8-37.6 34.8-11.3 3.55-23 4.16-34.7 4.13h-3.12c-3.44 0.01-6.89 0-10.3 0h-7.52c-5.46 0.01-10.9 0.01-16.4 0.01-8.18-0.01-16.4 0-24.5 0-13.9 0.01-27.9 0.01-41.8 0.01h-42.4-2.71-10.9c-37.9 0.01-75.8 0.02-114 0.02h-12.2-3.07-67.3c-9.24 0-18.5 0-27.7 0.01h-3.09c-58.5 0-117 0.01-175 0.01h-6.57-29.6-13.2-6.61c-69.8-0.01-140 0-209 0.02-17.6 0-35.2 0-52.7 0.01h-3.28c-33.4 0-66.7 0.01-100 0.01h-3.17-69-24.7-6.14c-32.6 0-65.2 0-97.8 0.01-32.8 0.01-65.7 0.01-98.5 0.01-4.54 0-9.07 0-13.6-0.01h-2.7c-14.1 0-28.2 0.01-42.2 0.01-13.8 0.01-27.7 0.01-41.6 0-8.12 0-16.2 0-24.4 0.01-6.03 0-12.1 0-18.1-0.01-2.43 0-4.85 0-7.27 0.01-35.7 0.07-35.7 0.07-49.4-6.26-0.89-0.4-1.78-0.8-2.69-1.21-16.4-8.1-26.6-22.1-33.3-38.8-0.35-0.85-0.69-1.7-1.04-2.57-5.61-16.7-1.86-34 5.46-49.4 3.57-6.44 8.44-11.8 13.6-17 0.59-0.63 1.18-1.26 1.79-1.9 4.12-4.01 8.77-6.71 13.8-9.35 0.62-0.33 1.23-0.66 1.86-1 14.2-7.05 29.9-6.18 45.3-6.13z" fill="#000100"/>
</svg>
